<svg id="Group_31" data-name="Group 31" xmlns="http://www.w3.org/2000/svg" width="550.993" height="338.682" viewBox="0 0 550.993 338.682">
  <g id="Group_35" data-name="Group 35" transform="translate(339.974 32.331)">
    <g id="Group_31-2" data-name="Group 31" transform="translate(0 16.23)" opacity="0.6">
      <path id="Path_227" data-name="Path 227" d="M2285.707,813.152s24.589-189.171,75.67-180.57S2316.814,755.69,2311.4,810.987l-25.691,2.165Z" transform="translate(-2285.707 -632.297)" fill="#d1ecf3"/>
    </g>
    <g id="Group_32" data-name="Group 32" transform="translate(40.803 22.137)">
      <path id="Path_228" data-name="Path 228" d="M1944.743,809.166s67.876-171.246,122.268-151.817-75.622,105.074-93.509,155.527Z" transform="translate(-1944.743 -655.813)" fill="#f9e0db"/>
      <path id="Path_229" data-name="Path 229" d="M2050.812,881.057c11.718-35.068,36.409-68.843,55.06-91a442.88,442.88,0,0,1,38.055-40.094l-.987-1.1a444.615,444.615,0,0,0-38.2,40.243c-18.731,22.258-43.538,56.2-55.331,91.485l1.4.467Z" transform="translate(-2034.741 -725.488)" fill="#fff"/>
    </g>
    <g id="Group_34" data-name="Group 34" transform="translate(17.643 122.353)">
      <path id="Path_230" data-name="Path 230" d="M1968.841,1115.484c-20.964,9.5-10.133,42-36.525,41.232-22.325-.663-24.528-2.236-30.549,5.453a35.469,35.469,0,0,0-4.946,8.683c-1.492,3.723-4.7,9.424-10.892,11.944-37.839,15.38-104.149-31.18-70.033-72.078,2.464-2.954,6.583-4.775,11.2-6.551,25.028-9.625,35.661.522,49.481-34.4s50.956,2.866,67.991-2.419,31.22-13.8,48.723,1.691c17.508,15.5-3.479,36.957-24.451,46.444Z" transform="translate(-1806.438 -1054.784)" fill="#d1ecf3"/>
      <g id="Group_33" data-name="Group 33" transform="translate(30.022 1.162)" opacity="0.5">
        <path id="Path_231" data-name="Path 231" d="M1815.2,1206.395l-1.09-1.05c.462-.482,47.6-48.434,161.073-75.685l.354,1.472C1862.489,1158.28,1815.66,1205.915,1815.2,1206.395Z" transform="translate(-1814.11 -1112.014)" fill="#fff"/>
        <path id="Path_232" data-name="Path 232" d="M2227.847,1134.679c-17.962-10.3-22.926-20.474-23.127-20.9l1.369-.648c.048.1,5.011,10.2,22.514,20.236l-.754,1.314Z" transform="translate(-2165.292 -1099.636)" fill="#fff"/>
        <path id="Path_233" data-name="Path 233" d="M2185.566,1109.858c-5.83-6.538-7.744-17.357-5.534-31.29a101.034,101.034,0,0,1,5.1-19.158l1.407.56c-.136.337-13.253,33.847.156,48.881l-1.13,1.007Z" transform="translate(-2116.962 -1059.41)" fill="#fff"/>
        <path id="Path_234" data-name="Path 234" d="M1859.373,1214.785c-2.112-1.113-3.291-1.876-3.343-1.912l.836-1.263c.246.163,25.063,16.252,54.977,8.854l.364,1.469c-24.1,5.961-44.96-3-52.832-7.149Z" transform="translate(-1761.31 -1173.379)" fill="#fff"/>
        <path id="Path_235" data-name="Path 235" d="M1989.574,1264.577c-8.523-6.187-12.135-13.423-13.665-18.407a26.521,26.521,0,0,1-1.286-9.51l1.507.148c-.015.151-1.274,15.219,14.333,26.543Z" transform="translate(-1869.343 -1192.137)" fill="#fff"/>
      </g>
    </g>
    <path id="Path_236" data-name="Path 236" d="M2181.51,574.928c2.253-6.624,5.026-7.88,7.624-7s4.032,3.569,1.779,10.193c-4.1,12.067-10.789,16.3-10.789,16.3s-2.778-7.254,1.384-19.5Z" transform="translate(-2074.647 -567.682)" fill="#d1ecf3"/>
    <path id="Path_237" data-name="Path 237" d="M1954.153,1000.04c7.068-2.316,9.907-.759,10.816,2.012s-.46,5.707-7.528,8.023c-12.878,4.22-20.746,1.243-20.746,1.243s4.393-7,17.458-11.276Z" transform="translate(-1786.918 -890.596)" fill="#d1ecf3"/>
    <path id="Path_238" data-name="Path 238" d="M2034.875,951.758c3.064-6.29,5.973-7.189,8.44-5.988s3.554,4.044.49,10.336c-5.582,11.459-12.743,14.825-12.743,14.825S2029.213,963.386,2034.875,951.758Z" transform="translate(-1891.005 -850.458)" fill="#d1ecf3"/>
  </g>
  <g id="Group_39" data-name="Group 39" transform="translate(59.43 38.805)">
    <path id="Path_239" data-name="Path 239" d="M3057.287,818.838s20.758-177.963-27.743-181.781,12.514,122.333,4.828,173.949l22.916,7.835Z" transform="translate(-2872.617 -626.042)" fill="#f9e0db"/>
    <g id="Group_36" data-name="Group 36" transform="translate(79.837 15.663)">
      <path id="Path_240" data-name="Path 240" d="M3176.968,830.577s-16.87-178.091-72.856-174.718,42.031,118.485,45.035,170.382l27.821,4.338Z" transform="translate(-3086.87 -655.812)" fill="#d1ecf3"/>
      <path id="Path_241" data-name="Path 241" d="M3194.5,900.5c-1.422-35.877-15.29-74.067-26.671-99.786a430.04,430.04,0,0,0-24.616-47.705l1.218-.759a431.57,431.57,0,0,1,24.709,47.884c11.434,25.835,25.362,64.208,26.794,100.311l-1.435.058Z" transform="translate(-3119.985 -728.026)" fill="#fff"/>
    </g>
    <g id="Group_38" data-name="Group 38" transform="translate(0 31)">
      <path id="Path_242" data-name="Path 242" d="M3292.493,877.468c-1.316-.924-2.647-1.819-3.966-2.74-5.051-3.461-10.987-7.186-17.558-11.072-5.584-3.26-11.595-6.646-17.915-10.09-.728-.4-1.484-.826-2.228-1.2-4.808-2.6-9.746-5.237-14.807-7.862-3.4-1.778-6.853-3.587-10.324-5.365-3.835-1.947-7.643-3.876-11.494-5.865a1.935,1.935,0,0,1-.394-.181c-1.547-.784-3.11-1.54-4.654-2.326-1.065-.555-2.175-1.1-3.268-1.668-7.194-3.587-14.3-7.124-21.19-10.58-9.194-4.584-17.965-8.972-25.912-13.057.8-5.006,2.173-10.271,2.569-15.5l.015-.03c0-.269.008-.492.02-.789l.015-.03c.324-5.579-.533-11.168-4.328-16.408a80.152,80.152,0,0,1-10.022-18.51c-.2-.53-.4-1.062-.585-1.623-4.559-13.18-4.365-26.269,5.636-32.18.231-.138.49-.261.719-.4a22.3,22.3,0,0,1,6.031-2.133c23.91-4.994,32.385,10.063,45.146,23.652,4.484,4.823,14.067,6.041,24.287,7.345a135.561,135.561,0,0,1,17.251,2.856c.219.083.427.123.618.191a37.858,37.858,0,0,1,6.212,2.2,19.328,19.328,0,0,1,1.738.854l.437.244c7.279,4.054,11.773,10.979,9.972,23.669-.045.357-.093.711-.121,1.037-.2,1.454-.382,2.876-.515,4.215-.121,1.381-.239,2.69-.324,3.939a.111.111,0,0,0,0,.075c-.681,10.605.7,17.171,3.519,22.175,4.948,8.781,14.3,12.808,24.618,25.38,3.3,4.011,6.069,7.8,6.8,11.758,2.226,12.376-.369,22.373-6,30.029Z" transform="translate(-3143.599 -716.872)" fill="#f9e0db"/>
      <g id="Group_37" data-name="Group 37" transform="translate(2.329 2.941)">
        <path id="Path_243" data-name="Path 243" d="M3429.132,862.329c-.729-.4-1.485-.826-2.228-1.2-7.774-17.41-22.7-45.133-49.679-78.39-.395-.525-.8-1.02-1.216-1.515a528.523,528.523,0,0,0-48.369-51.5l.547-.573.548-.573c.042.06.131.111.171.171,29.384,27.575,51.056,53.45,66.861,75.753.294.432.618.877.912,1.309l.03.015c16.681,23.745,26.7,43.357,32.423,56.5Z" transform="translate(-3322.003 -728.58)" fill="#fff"/>
        <path id="Path_244" data-name="Path 244" d="M3280.145,969.409c21.64-.068,31.411-6.749,31.818-7.033l-.907-1.3c-.1.068-9.826,6.679-30.916,6.747Z" transform="translate(-3192.903 -902.679)" fill="#fff"/>
        <path id="Path_245" data-name="Path 245" d="M3355.507,900.906c8.678-2.924,16.011-11.766,21.2-25.566a105.554,105.554,0,0,0,5.268-20.042l-1.567-.219c-.053.374-5.458,37.6-25.41,44.329l.507,1.5Z" transform="translate(-3281.721 -823.305)" fill="#fff"/>
        <path id="Path_246" data-name="Path 246" d="M3583.994,878.694c2.494.083,3.961-.005,4.027-.01l-.106-1.577c-.309.02-31.172,1.809-54.525-20.376l-1.09,1.148c18.819,17.877,42.4,20.512,51.694,20.818Z" transform="translate(-3532.3 -824.54)" fill="#fff"/>
        <path id="Path_247" data-name="Path 247" d="M3581.028,956.316c10.942-1.213,17.965-5.92,21.929-9.658a27.68,27.68,0,0,0,6.084-7.975l-1.447-.643c-.065.146-6.709,14.486-26.744,16.706l.176,1.572Z" transform="translate(-3565.515 -885.426)" fill="#fff"/>
      </g>
    </g>
    <path id="Path_248" data-name="Path 248" d="M3507.478,605.713c-5.456-5.4-5.36-8.744-3.243-10.881s5.456-2.263,10.912,3.137c9.937,9.842,10.906,18.467,10.906,18.467s-8.493-.741-18.573-10.726Z" transform="translate(-3460.617 -593.457)" fill="#d1ecf3"/>
  </g>
  <g id="Group_42" data-name="Group 42" transform="translate(0 0)">
    <g id="Group_40" data-name="Group 40" transform="translate(220.86)">
      <path id="Path_249" data-name="Path 249" d="M2508.542,633.179s61.36,59.129,59.78,70.563l-8.287,55.364-137.374-11.369,6.322-47.931c2.53-8.329,65.3-67.843,65.3-67.843s-55.666-76.979-55.354-80.746l2.929-35.377,138.183,1.593-6.448,47.856c-1.728,6.491-65.05,67.893-65.05,67.893Z" transform="translate(-2404.692 -496.532)" fill="#93d5e1"/>
      <path id="Path_250" data-name="Path 250" d="M2550.51,812.523l23.978,37.146-3.315,94.087,10.386-93.5,42.1-44.224s-36.643,11.758-42.1,12.2-31.049-5.707-31.049-5.707Z" transform="translate(-2480.428 -713.83)" fill="#d3505d"/>
      <path id="Path_251" data-name="Path 251" d="M2611.29,1342.538l37.557-27.588,36.4,28.331Z" transform="translate(-2557.286 -1094.916)" fill="#d3505d"/>
      <path id="Path_252" data-name="Path 252" d="M2439.5,1398.186l160.016,8.026a4.006,4.006,0,0,1,3.876,4.717l-4.6,21.492a4.068,4.068,0,0,1-4.38,3.087l-160.627-13.3a3.976,3.976,0,0,1-3.639-5.066l5.212-16.224a4.084,4.084,0,0,1,4.142-2.738Z" transform="translate(-2429.957 -1157.238)" fill="#242e4a"/>
      <path id="Path_253" data-name="Path 253" d="M2518.07,476.307l-160.016-8.025a4.006,4.006,0,0,1-3.876-4.717l4.6-21.492a4.069,4.069,0,0,1,4.381-3.087l160.626,13.3a3.976,3.976,0,0,1,3.64,5.066l-5.212,16.224a4.085,4.085,0,0,1-4.142,2.738Z" transform="translate(-2335.039 -438.971)" fill="#242e4a"/>
    </g>
    <g id="Group_41" data-name="Group 41" transform="translate(0 122.697)">
      <path id="Path_254" data-name="Path 254" d="M3204.25,927.44v213.087c64.8-5.252,188.606-17.146,188.606-17.146s.005-.038.013-.11c.075-.929.63-7.563,1.454-17.365,1.683-20.007,4.493-53.211,6.679-78.054,1.645-18.683,2.936-32.632,3.13-32.674C3404.132,995.177,3281.04,942.36,3204.25,927.44Z" transform="translate(-3204.25 -927.44)" fill="#7791a8"/>
      <path id="Path_255" data-name="Path 255" d="M3194.465,1322.492c9.822-14.622,20.4-129.773,7.794-125.7C3171.635,1206.7,3179.557,1344.681,3194.465,1322.492Z" transform="translate(-3002.378 -1129.058)" fill="#242e4a"/>
      <path id="Path_256" data-name="Path 256" d="M2407.3,1395.388c17.927,4.077,67.69,25.774,79.4,30.366,12.7,4.981,69.453-3.881,80.528-12.374,13.192-10.115,51.031-45.822,47.8-51.5-3.1-5.446-12.177-8.151-27.965,3.78-6.589,4.981-16.438,12-19.088,13.305-15.443,7.631-30.971,7.066-43.041,4.6-13.13-2.68-42.1-24.963-53.545-41.076-12.369-17.417-6.385-38.853-31.394-35.794-9.839,1.2-24.1,2.54-30.263,5.15C2399.177,1316.312,2397.474,1393.152,2407.3,1395.388Z" transform="translate(-2213.522 -1211.21)" fill="#ffb27d"/>
      <path id="Path_257" data-name="Path 257" d="M2755.3,1359.766s36.955,26.591,42.029,28.369,40.471,10.572,43.7,9.289,3.089-17.161-7.787-23.262-28.007-16.043-33.656-25.872-20.592-38.271-34.543-40.891-9.736,52.37-9.736,52.37Z" transform="translate(-2530.058 -1211.89)" fill="#ffb27d"/>
      <path id="Path_258" data-name="Path 258" d="M2838.762,1518.522a1.326,1.326,0,0,0,.219-.065c1.186-.472,1.967-2.281,2.145-4.961.422-6.388-2.484-15.149-9.867-19.291-8.957-5.026-27.6-15.481-33.448-25.669a.55.55,0,1,0-.954.547c5.29,9.206,20.087,18.349,33.865,26.078,8.021,4.5,9.6,13.911,9.307,18.259-.161,2.436-.847,3.77-1.454,4.014-2.871,1.135-37.748-7.347-43.312-9.3-4.941-1.731-41.521-28.032-41.888-28.3a.55.55,0,1,0-.643.892c1.512,1.088,37.078,26.658,42.167,28.442,4.155,1.457,39.21,10.4,43.865,9.347Z" transform="translate(-2527.81 -1332.413)" fill="#e9845c"/>
      <path id="Path_259" data-name="Path 259" d="M2790.414,1620.985a.55.55,0,0,0,.12-1.03c-1.886-.927-11.4-5.544-13.393-5.335-1.008.108-2.09,1.226-3.316,3.424a30.6,30.6,0,0,0-1.469,3.054.55.55,0,0,0,1.02.412c1.567-3.883,3.213-5.729,3.878-5.8,1.3-.136,8.535,3.135,12.8,5.23a.545.545,0,0,0,.364.043Z" transform="translate(-2482.463 -1442.004)" fill="#e9845c"/>
      <path id="Path_260" data-name="Path 260" d="M2415.976,1548.244a.556.556,0,0,0,.284-.166.55.55,0,0,0-.035-.776,3.252,3.252,0,0,1-.716-2.894c.254-1.492,5.752-6.923,9.161-9.995a.549.549,0,0,0-.736-.816c-.932.839-9.106,8.272-9.508,10.628a4.319,4.319,0,0,0,1.06,3.891.553.553,0,0,0,.492.131Z" transform="translate(-2026.556 -1381.233)" fill="#e9845c"/>
    </g>
  </g>
</svg>
