<svg xmlns="http://www.w3.org/2000/svg" width="789.188" height="164.98" viewBox="0 0 789.188 164.98">
  <g id="Group_46" data-name="Group 46" transform="translate(-1925.465 490.49)">
    <g id="Group_45" data-name="Group 45">
      <g id="Group_44" data-name="Group 44">
        <g id="Group_3" data-name="Group 3" transform="translate(1630 -364.49)">
          <g id="Group_4" data-name="Group 4">
            <g id="Group_1" data-name="Group 1" transform="translate(22 -24.75)">
              <path id="Path_1" data-name="Path 1" d="M429.709-147.5a84.814,84.814,0,0,0,36.3,19.5c21.822,5.214,51.367,14.87,43.836,39.974s-44.609,16.414-57.74-.966S435.7-113.126,432.026-128,429.709-147.5,429.709-147.5Z" transform="translate(-156 126.994)" fill="#a5b9b7"/>
              <path id="Path_2" data-name="Path 2" d="M495.375-134.285s41.9,6.566,46.346,45.767-36.5,50.209-36.5,50.209,51.754,3.09,74.154-45.574-5.166-88.879-23.318-102.011-36.691-20.277-68.168-16.221c16.994,5.021,26.263,10.042,26.263,10.042l7.724-7.145,9.656.966v55.037h-9.656S508.362-194.2,473.6-192.074s-24.718,32.829-24.718,32.829,2.51,9.849,16.8,14.676S495.375-134.285,495.375-134.285Z" transform="translate(-147.898 102)" fill="#003296"/>
            </g>
            <g id="Group_43" data-name="Group 43" transform="translate(0 15)">
              <path id="Path_3" data-name="Path 3" d="M64.727-21.827a21.432,21.432,0,0,1-2.515,10.662,21.265,21.265,0,0,1-6.79,7.343A30.451,30.451,0,0,1,45.565.4,49.641,49.641,0,0,1,33.8,1.76,45.779,45.779,0,0,1,21.727.226,30.048,30.048,0,0,1,11.945-4.3a21.912,21.912,0,0,1-6.538-7.393A21.013,21.013,0,0,1,3.018-21.877v-.4H18.759v.4a9.171,9.171,0,0,0,1.458,5.331,11.051,11.051,0,0,0,3.747,3.395,16.645,16.645,0,0,0,5.054,1.811,28.925,28.925,0,0,0,5.432.528,27.269,27.269,0,0,0,5.96-.6A15.225,15.225,0,0,0,45.037-13.2a8.76,8.76,0,0,0,2.992-2.917,7.535,7.535,0,0,0,1.056-4,6.747,6.747,0,0,0-.729-3.194,7.544,7.544,0,0,0-2.263-2.515,17.694,17.694,0,0,0-3.923-2.087,54.739,54.739,0,0,0-5.658-1.861L21.525-33.9q-7.946-2.213-12.1-6.865t-4.149-12.3A19.689,19.689,0,0,1,7.544-62.64a20.889,20.889,0,0,1,6.136-6.966,27.812,27.812,0,0,1,9.1-4.25A42.287,42.287,0,0,1,34-75.289a42.234,42.234,0,0,1,10.134,1.232,28.944,28.944,0,0,1,9,3.847A20.614,20.614,0,0,1,59.6-63.495a18.633,18.633,0,0,1,2.464,9.782H46.42a8.626,8.626,0,0,0-3.873-6.639q-3.47-2.364-9.254-2.364a22.529,22.529,0,0,0-4.526.453,13.445,13.445,0,0,0-3.948,1.433,8.157,8.157,0,0,0-2.791,2.54,6.657,6.657,0,0,0-1.056,3.822A7.993,7.993,0,0,0,21.4-51.7a5.057,5.057,0,0,0,1.282,1.961,7.486,7.486,0,0,0,2.087,1.358,20.554,20.554,0,0,0,2.842,1.006l17.7,4.778a38.939,38.939,0,0,1,8.173,3.093,23.786,23.786,0,0,1,6.085,4.451A18.068,18.068,0,0,1,63.394-29.2,19.486,19.486,0,0,1,64.727-21.827ZM141.084,0V-32.64a46.106,46.106,0,0,0-.251-4.878,11.157,11.157,0,0,0-1.232-4.174,7.482,7.482,0,0,0-2.867-2.917,10.191,10.191,0,0,0-5.155-1.106q-5.281,0-7.846,3.5t-2.565,10.285V0h-15.49V-34.752q0-5.633-2.137-8.3t-7.217-2.666a9.6,9.6,0,0,0-7.443,3.37q-3.018,3.47-3.018,9.254V0H70.322V-56.479H84.957v7.695h.2A21.74,21.74,0,0,1,92.778-55.7a20.545,20.545,0,0,1,9.631-2.238,20.328,20.328,0,0,1,10.436,2.414,14.526,14.526,0,0,1,6.06,6.94,22.984,22.984,0,0,1,7.569-6.94A19.314,19.314,0,0,1,136-57.937a27.429,27.429,0,0,1,8.977,1.333,16.737,16.737,0,0,1,6.412,3.873,16.314,16.314,0,0,1,3.873,6.186,24.412,24.412,0,0,1,1.308,8.273V0Zm50.261-57.937q12.523,0,18.634,4.1A13.114,13.114,0,0,1,216.089-42.3V-11.97q0,1.71.1,3.395t.3,3.395a21.876,21.876,0,0,0,.629,3.043A8.187,8.187,0,0,0,218.051,0H202.309q-.4-1.308-.7-2.64a18.3,18.3,0,0,1-.4-2.741A21.486,21.486,0,0,1,193.13-.226a31.1,31.1,0,0,1-10.888,1.785q-8.8,0-13.981-4.375-5.23-4.375-5.23-12.573,0-7.9,4.878-12.07,4.979-4.275,17.9-5.633,4.526-.5,7.469-1.006a17.425,17.425,0,0,0,4.4-1.207,4.809,4.809,0,0,0,2.867-4.728,9.659,9.659,0,0,0-.528-3.344,5.341,5.341,0,0,0-1.685-2.364,7.9,7.9,0,0,0-3.068-1.408,19.588,19.588,0,0,0-4.677-.478q-9.455,0-10.36,7.393H164.74a17.6,17.6,0,0,1,2.716-8.273,17.489,17.489,0,0,1,5.859-5.482,26.765,26.765,0,0,1,8.248-3.018A49.8,49.8,0,0,1,191.345-57.937ZM178.47-16.043a6.508,6.508,0,0,0,2.288,5.281q2.288,1.911,7.267,1.911,6.236,0,9.38-3.219t3.143-9.505v-6.035a9.132,9.132,0,0,1-3.671,1.71q-1.157.251-3.168.629t-4.979.729q-5.331.654-7.8,2.716A7.126,7.126,0,0,0,178.47-16.043ZM224.808,0V-56.479h14.686v10.511h.2a20.423,20.423,0,0,1,7.343-8.751A18.66,18.66,0,0,1,257.7-57.937a20.78,20.78,0,0,1,2.188.126,10.492,10.492,0,0,1,1.987.377V-43a19.929,19.929,0,0,0-2.917-.427q-1.609-.126-3.37-.126-7.846,0-11.618,4.778Q240.248-34,240.248-25.9V0Zm83.5.1q-.956.151-2.238.277t-2.666.176q-1.383.05-2.766.075T298.1.654a50.757,50.757,0,0,1-6.588-.427,16.762,16.762,0,0,1-5.834-1.811A11.081,11.081,0,0,1,281.5-5.532a12.857,12.857,0,0,1-1.609-6.89V-46.068H268.981V-56.479h10.914v-16.9h15.541v16.9H308.31v10.411H295.435v28.315a10.01,10.01,0,0,0,.377,2.992,4.166,4.166,0,0,0,1.207,1.911,4.617,4.617,0,0,0,2.137,1.006,15.265,15.265,0,0,0,3.118.277q.654,0,1.509-.025t1.685-.075q.83-.05,1.584-.126t1.257-.176Z" transform="translate(474 -46.936)"/>
              <path id="Path_4" data-name="Path 4" d="M406.788-21.827a21.432,21.432,0,0,1-2.515,10.662,21.265,21.265,0,0,1-6.79,7.343A30.451,30.451,0,0,1,387.627.4,49.641,49.641,0,0,1,375.858,1.76,45.78,45.78,0,0,1,363.788.226,30.048,30.048,0,0,1,354.006-4.3a21.912,21.912,0,0,1-6.538-7.393,21.013,21.013,0,0,1-2.389-10.184v-.4h15.742v.4a9.171,9.171,0,0,0,1.458,5.331,11.051,11.051,0,0,0,3.747,3.395,16.644,16.644,0,0,0,5.054,1.811,28.925,28.925,0,0,0,5.432.528,27.269,27.269,0,0,0,5.96-.6A15.225,15.225,0,0,0,387.1-13.2a8.76,8.76,0,0,0,2.992-2.917,7.535,7.535,0,0,0,1.056-4,6.747,6.747,0,0,0-.729-3.194,7.544,7.544,0,0,0-2.263-2.515,17.693,17.693,0,0,0-3.923-2.087,54.741,54.741,0,0,0-5.658-1.861L363.587-33.9q-7.946-2.213-12.1-6.865t-4.149-12.3a19.689,19.689,0,0,1,2.263-9.581,20.889,20.889,0,0,1,6.136-6.966,27.812,27.812,0,0,1,9.1-4.25,42.287,42.287,0,0,1,11.215-1.433,42.234,42.234,0,0,1,10.134,1.232,28.945,28.945,0,0,1,9,3.847,20.614,20.614,0,0,1,6.463,6.714,18.633,18.633,0,0,1,2.464,9.782H388.482a8.626,8.626,0,0,0-3.873-6.639q-3.47-2.364-9.254-2.364a22.529,22.529,0,0,0-4.526.453,13.445,13.445,0,0,0-3.948,1.433,8.158,8.158,0,0,0-2.791,2.54,6.657,6.657,0,0,0-1.056,3.822,7.993,7.993,0,0,0,.427,2.766,5.057,5.057,0,0,0,1.282,1.961,7.486,7.486,0,0,0,2.087,1.358,20.554,20.554,0,0,0,2.842,1.006l17.7,4.778a38.939,38.939,0,0,1,8.173,3.093,23.786,23.786,0,0,1,6.085,4.451,18.068,18.068,0,0,1,3.822,5.859A19.486,19.486,0,0,1,406.788-21.827ZM452.3,0V-32.338q0-6.588-2.263-9.983t-7.645-3.395q-6.437,0-9.254,3.822T430.32-30.125V0H414.88V-77.954h15.44v29.371h.352a18.063,18.063,0,0,1,3.043-3.822,20,20,0,0,1,3.948-2.942,20.2,20.2,0,0,1,4.6-1.911,18.574,18.574,0,0,1,5-.679,28.055,28.055,0,0,1,9.254,1.358,15.173,15.173,0,0,1,6.387,4.149,17.222,17.222,0,0,1,3.7,7.041,37.926,37.926,0,0,1,1.182,10.084V0Zm51.758-57.937A27.169,27.169,0,0,1,515.8-55.523a25.134,25.134,0,0,1,8.6,6.563,28.331,28.331,0,0,1,5.281,9.707,38.665,38.665,0,0,1,1.785,11.894v2.867H490.729a19.616,19.616,0,0,0,1.207,6.362,13.3,13.3,0,0,0,2.791,4.476,11.028,11.028,0,0,0,4.074,2.666,14.234,14.234,0,0,0,5.054.88,16.2,16.2,0,0,0,6.991-1.383,12.919,12.919,0,0,0,4.828-3.9h14.484a25.737,25.737,0,0,1-4.174,7.116,25.9,25.9,0,0,1-6.06,5.331A28.2,28.2,0,0,1,512.329.4,32.734,32.734,0,0,1,503.5,1.559,29.807,29.807,0,0,1,491.961-.6a25.936,25.936,0,0,1-8.927-6.06,27.016,27.016,0,0,1-5.759-9.38,34.564,34.564,0,0,1-2.037-12.121A32.458,32.458,0,0,1,477.3-39.782a28.39,28.39,0,0,1,5.834-9.455,27.464,27.464,0,0,1,9.078-6.362A29.059,29.059,0,0,1,504.056-57.937ZM515.925-34.3q-.956-6.236-3.948-9.1T503.5-46.27q-5.633,0-8.927,3.168a13.578,13.578,0,0,0-3.847,8.8Zm51.891-23.638a27.169,27.169,0,0,1,11.743,2.414,25.134,25.134,0,0,1,8.6,6.563,28.331,28.331,0,0,1,5.281,9.707,38.665,38.665,0,0,1,1.785,11.894v2.867H554.489a19.616,19.616,0,0,0,1.207,6.362,13.3,13.3,0,0,0,2.791,4.476,11.028,11.028,0,0,0,4.074,2.666,14.234,14.234,0,0,0,5.054.88,16.2,16.2,0,0,0,6.991-1.383,12.919,12.919,0,0,0,4.828-3.9h14.484a25.737,25.737,0,0,1-4.174,7.116,25.9,25.9,0,0,1-6.06,5.331A28.2,28.2,0,0,1,576.09.4a32.734,32.734,0,0,1-8.826,1.157A29.807,29.807,0,0,1,555.721-.6a25.936,25.936,0,0,1-8.927-6.06,27.016,27.016,0,0,1-5.759-9.38A34.564,34.564,0,0,1,539-28.164a32.457,32.457,0,0,1,2.062-11.618,28.391,28.391,0,0,1,5.834-9.455,27.464,27.464,0,0,1,9.078-6.362A29.059,29.059,0,0,1,567.817-57.937ZM579.686-34.3q-.956-6.236-3.948-9.1t-8.474-2.867q-5.633,0-8.927,3.168a13.579,13.579,0,0,0-3.847,8.8ZM637.272.1q-.956.151-2.238.277t-2.666.176Q630.985.6,629.6.629t-2.54.025a50.757,50.757,0,0,1-6.588-.427,16.762,16.762,0,0,1-5.834-1.811,11.081,11.081,0,0,1-4.174-3.948,12.857,12.857,0,0,1-1.609-6.89V-46.068H597.943V-56.479h10.914v-16.9H624.4v16.9h12.875v10.411H624.4v28.315a10.01,10.01,0,0,0,.377,2.992,4.166,4.166,0,0,0,1.207,1.911,4.617,4.617,0,0,0,2.137,1.006,15.265,15.265,0,0,0,3.118.277q.654,0,1.509-.025t1.685-.075q.83-.05,1.584-.126t1.257-.176Z" transform="translate(447.382 -45.27)" fill="#8ba2a0"/>
            </g>
          </g>
        </g>
        <path id="Path_261" data-name="Path 261" d="M20.92-14a7.01,7.01,0,0,1-2.068,5.3,6.931,6.931,0,0,1-2.416,1.479,9.18,9.18,0,0,1-3.127.493H6.7V2.341H2.563V-21.283H13.309A7.7,7.7,0,0,1,18.851-19.3,6.913,6.913,0,0,1,20.92-14Zm-4.04,0A3.764,3.764,0,0,0,15.725-17a5.426,5.426,0,0,0-3.611-1H6.7v8h5.51a7.659,7.659,0,0,0,2-.234,3.663,3.663,0,0,0,1.462-.751A3.646,3.646,0,0,0,16.88-14ZM40.989-6.708a11.282,11.282,0,0,1-.622,3.813A8.54,8.54,0,0,1,38.5.159a8.171,8.171,0,0,1-2.868,2,9.632,9.632,0,0,1-3.757.695,8.611,8.611,0,0,1-6.56-2.65,9.728,9.728,0,0,1-2.5-6.916,9.767,9.767,0,0,1,2.472-6.916,8.555,8.555,0,0,1,6.593-2.65,8.69,8.69,0,0,1,6.625,2.65A9.765,9.765,0,0,1,40.989-6.708ZM37-6.708a9.893,9.893,0,0,0-.315-2.545,6.1,6.1,0,0,0-.953-2.06,4.631,4.631,0,0,0-1.608-1.382,4.836,4.836,0,0,0-2.278-.509,4.705,4.705,0,0,0-2.133.469,4.464,4.464,0,0,0-1.584,1.325,6.161,6.161,0,0,0-.986,2.052,9.692,9.692,0,0,0-.339,2.65,9.718,9.718,0,0,0,.331,2.6,6.048,6.048,0,0,0,.978,2.052A4.6,4.6,0,0,0,29.7-.713a4.7,4.7,0,0,0,2.173.485,4.747,4.747,0,0,0,2.181-.485,4.62,4.62,0,0,0,1.608-1.349,6.171,6.171,0,0,0,.994-2.052A9.413,9.413,0,0,0,37-6.708Zm10.648-9.081,3.8,13.783h.065L55.03-15.789h4.007L62.593-2.038h.081l3.8-13.751h4.12L64.822,2.341H60.686L57.018-11.249h-.081L53.382,2.341H49.2l-5.769-18.13Zm34.046-.485a8.3,8.3,0,0,1,3.708.784,7.68,7.68,0,0,1,2.658,2.125,9.189,9.189,0,0,1,1.6,3.127,13.118,13.118,0,0,1,.533,3.773v.727H76.812A7.632,7.632,0,0,0,77.184-3.5a5.252,5.252,0,0,0,.953,1.737A4.268,4.268,0,0,0,79.624-.632a4.679,4.679,0,0,0,1.988.4,5.248,5.248,0,0,0,2.69-.63A4.676,4.676,0,0,0,85.99-2.523h3.765A8.452,8.452,0,0,1,88.511-.285a7.815,7.815,0,0,1-1.826,1.7,8.309,8.309,0,0,1-2.343,1.075,10.08,10.08,0,0,1-2.8.372,9.036,9.036,0,0,1-3.66-.711A7.785,7.785,0,0,1,75.14.167a8.766,8.766,0,0,1-1.721-3.022,11.876,11.876,0,0,1-.6-3.854,11.166,11.166,0,0,1,.6-3.66,9.092,9.092,0,0,1,1.737-3.046A8.367,8.367,0,0,1,77.943-15.5,8.7,8.7,0,0,1,81.692-16.274ZM86.2-8.421a7.639,7.639,0,0,0-.452-1.947,4.758,4.758,0,0,0-.913-1.511,3.939,3.939,0,0,0-1.39-.978,4.771,4.771,0,0,0-1.882-.347,4.793,4.793,0,0,0-1.9.355,4.159,4.159,0,0,0-1.422.986,4.948,4.948,0,0,0-.953,1.511,7,7,0,0,0-.477,1.931ZM94.344,2.341v-18.13h3.765v3.684h.065a6.612,6.612,0,0,1,2.408-2.989,6.154,6.154,0,0,1,3.555-1.083q.259,0,.59.024a2.81,2.81,0,0,1,.557.089v3.749a4.868,4.868,0,0,0-.695-.089q-.388-.024-.776-.024a5.081,5.081,0,0,0-4.088,1.664,6.521,6.521,0,0,0-1.406,4.33V2.341Zm21.539-18.615a8.3,8.3,0,0,1,3.708.784,7.68,7.68,0,0,1,2.658,2.125,9.189,9.189,0,0,1,1.6,3.127,13.118,13.118,0,0,1,.533,3.773v.727H111a7.632,7.632,0,0,0,.372,2.238,5.252,5.252,0,0,0,.953,1.737,4.268,4.268,0,0,0,1.487,1.131,4.679,4.679,0,0,0,1.988.4,5.248,5.248,0,0,0,2.69-.63,4.676,4.676,0,0,0,1.689-1.664h3.765A8.452,8.452,0,0,1,122.7-.285a7.815,7.815,0,0,1-1.826,1.7,8.309,8.309,0,0,1-2.343,1.075,10.08,10.08,0,0,1-2.8.372,9.036,9.036,0,0,1-3.66-.711A7.785,7.785,0,0,1,109.331.167a8.766,8.766,0,0,1-1.721-3.022,11.876,11.876,0,0,1-.6-3.854,11.167,11.167,0,0,1,.6-3.66,9.093,9.093,0,0,1,1.737-3.046,8.367,8.367,0,0,1,2.787-2.084A8.7,8.7,0,0,1,115.883-16.274Zm4.508,7.853a7.639,7.639,0,0,0-.452-1.947,4.759,4.759,0,0,0-.913-1.511,3.939,3.939,0,0,0-1.39-.978,4.771,4.771,0,0,0-1.882-.347,4.793,4.793,0,0,0-1.9.355,4.159,4.159,0,0,0-1.422.986,4.948,4.948,0,0,0-.953,1.511A7,7,0,0,0,111-8.421Zm25.094-14.284V2.341H141.7V-.374h-.065A5.716,5.716,0,0,1,140.63.991a5.968,5.968,0,0,1-1.357,1.018,6.73,6.73,0,0,1-1.64.63,7.7,7.7,0,0,1-1.842.218,7.514,7.514,0,0,1-3.523-.792,7.606,7.606,0,0,1-2.545-2.125,9.333,9.333,0,0,1-1.543-3.086,12.928,12.928,0,0,1-.517-3.676,12.476,12.476,0,0,1,.493-3.482,9.214,9.214,0,0,1,1.495-3.03,7.6,7.6,0,0,1,2.513-2.133,7.45,7.45,0,0,1,3.563-.808,7.474,7.474,0,0,1,1.737.2,6.861,6.861,0,0,1,1.592.59,5.716,5.716,0,0,1,1.349.978,5.638,5.638,0,0,1,1.026,1.365h.065v-9.566ZM131.622-6.74a10.009,10.009,0,0,0,.267,2.254,6.726,6.726,0,0,0,.864,2.1A4.99,4.99,0,0,0,134.3-.834a4.148,4.148,0,0,0,2.286.606,4.763,4.763,0,0,0,2.173-.477,4.347,4.347,0,0,0,1.575-1.341,6.212,6.212,0,0,0,.953-2.06,10.148,10.148,0,0,0,.323-2.65,10.281,10.281,0,0,0-.267-2.319,6.343,6.343,0,0,0-.864-2.068,4.736,4.736,0,0,0-1.559-1.487,4.513,4.513,0,0,0-2.351-.574,4.305,4.305,0,0,0-2.254.557,4.686,4.686,0,0,0-1.527,1.47,6.474,6.474,0,0,0-.873,2.068A10.826,10.826,0,0,0,131.622-6.74Zm46.44.016a13.378,13.378,0,0,1-.469,3.531,9.573,9.573,0,0,1-1.43,3.07,7.313,7.313,0,0,1-2.424,2.165,6.934,6.934,0,0,1-3.434.816,8.093,8.093,0,0,1-3.741-.824,5.238,5.238,0,0,1-2.383-2.408h-.065V2.341h-3.765V-22.705h3.975v9.566h.081a5.193,5.193,0,0,1,.994-1.309,5.95,5.95,0,0,1,1.382-.986,7.382,7.382,0,0,1,1.672-.622,7.869,7.869,0,0,1,1.866-.218,6.943,6.943,0,0,1,3.426.808,7.327,7.327,0,0,1,2.416,2.141,9.382,9.382,0,0,1,1.43,3.054A13.439,13.439,0,0,1,178.062-6.724Zm-3.991.016a10.306,10.306,0,0,0-.259-2.254,6.937,6.937,0,0,0-.832-2.1,4.729,4.729,0,0,0-1.5-1.543,4.14,4.14,0,0,0-2.286-.6,4.343,4.343,0,0,0-2.27.566,4.71,4.71,0,0,0-1.543,1.479,6.6,6.6,0,0,0-.881,2.076,10.022,10.022,0,0,0-.283,2.375,10.144,10.144,0,0,0,.267,2.286,6.532,6.532,0,0,0,.864,2.084A4.859,4.859,0,0,0,166.9-.818a4.341,4.341,0,0,0,2.327.59,4.108,4.108,0,0,0,2.206-.566,4.665,4.665,0,0,0,1.495-1.479,6.693,6.693,0,0,0,.856-2.076A10.875,10.875,0,0,0,174.071-6.708Zm10.374-9.081,4.767,13.913h.065L193.8-15.789h4.1l-7.74,20.731a8.16,8.16,0,0,1-.808,1.64,4.94,4.94,0,0,1-1.115,1.22,4.716,4.716,0,0,1-1.5.768,6.7,6.7,0,0,1-1.988.267q-.873,0-1.5-.048t-1.277-.129v-3.3q.727.113,1.236.145t.978.032a2.785,2.785,0,0,0,1.1-.194,2.082,2.082,0,0,0,.784-.59,3.834,3.834,0,0,0,.582-1q.25-.606.509-1.43l-6.98-18.114Zm30.378-5.494L226.085-3.735h.065V-21.283h3.927V2.341h-4.217L214.6-15.191h-.065V2.341h-3.927V-21.283Zm28.52,5.009a8.3,8.3,0,0,1,3.708.784,7.68,7.68,0,0,1,2.658,2.125,9.189,9.189,0,0,1,1.6,3.127,13.118,13.118,0,0,1,.533,3.773v.727H238.462a7.632,7.632,0,0,0,.372,2.238,5.252,5.252,0,0,0,.953,1.737,4.268,4.268,0,0,0,1.487,1.131,4.679,4.679,0,0,0,1.988.4,5.248,5.248,0,0,0,2.69-.63,4.676,4.676,0,0,0,1.689-1.664h3.765a8.453,8.453,0,0,1-1.244,2.238,7.815,7.815,0,0,1-1.826,1.7,8.309,8.309,0,0,1-2.343,1.075,10.081,10.081,0,0,1-2.8.372,9.036,9.036,0,0,1-3.66-.711A7.785,7.785,0,0,1,236.79.167a8.766,8.766,0,0,1-1.721-3.022,11.876,11.876,0,0,1-.6-3.854,11.167,11.167,0,0,1,.6-3.66,9.093,9.093,0,0,1,1.737-3.046,8.367,8.367,0,0,1,2.787-2.084A8.7,8.7,0,0,1,243.342-16.274Zm4.508,7.853a7.639,7.639,0,0,0-.452-1.947,4.759,4.759,0,0,0-.913-1.511,3.939,3.939,0,0,0-1.39-.978,4.771,4.771,0,0,0-1.882-.347,4.793,4.793,0,0,0-1.9.355,4.159,4.159,0,0,0-1.422.986,4.948,4.948,0,0,0-.953,1.511,7,7,0,0,0-.477,1.931Zm10.358-7.368,3.8,13.783h.065l3.523-13.783H269.6l3.555,13.751h.081l3.8-13.751h4.12l-5.769,18.13h-4.137L267.58-11.249H267.5L263.944,2.341h-4.185l-5.769-18.13ZM300.14,2.341,298.1-3.67h-9.792l-2.068,6.011h-4.217l8.5-23.592h5.591l8.338,23.592ZM293.288-18.2h-.065L289.346-6.821h7.708Zm21.135,1.923a6.472,6.472,0,0,1,3.321.816,5.856,5.856,0,0,1,2.222,2.351h.065v-2.682h3.83V1.226a9.434,9.434,0,0,1-.63,3.611,6.6,6.6,0,0,1-1.794,2.529,7.467,7.467,0,0,1-2.828,1.487,13.273,13.273,0,0,1-3.716.485,12.29,12.29,0,0,1-2.658-.291,8.072,8.072,0,0,1-2.383-.921A5.857,5.857,0,0,1,308.065,6.5a4.845,4.845,0,0,1-.864-2.383h3.959a2.812,2.812,0,0,0,1.349,1.818,5.491,5.491,0,0,0,2.771.606A4.531,4.531,0,0,0,318.811,5.2a5.546,5.546,0,0,0,1.22-3.862V-1.44h-.065A5.493,5.493,0,0,1,317.712.886a6.8,6.8,0,0,1-3.369.824,8.061,8.061,0,0,1-3.474-.695,6.786,6.786,0,0,1-2.44-1.907,8.133,8.133,0,0,1-1.446-2.868,12.955,12.955,0,0,1-.477-3.6,11.206,11.206,0,0,1,.5-3.353,8.546,8.546,0,0,1,1.495-2.844,7.355,7.355,0,0,1,2.48-1.979A7.6,7.6,0,0,1,314.424-16.274ZM310.5-7.306a9.394,9.394,0,0,0,.291,2.408,5.385,5.385,0,0,0,.881,1.882,4.085,4.085,0,0,0,1.47,1.22,4.549,4.549,0,0,0,2.044.436,4.371,4.371,0,0,0,2.068-.477A4.71,4.71,0,0,0,318.779-3.1a5.546,5.546,0,0,0,.937-1.818,7.252,7.252,0,0,0,.315-2.141A9.678,9.678,0,0,0,319.74-9.5a5.722,5.722,0,0,0-.889-1.947,4.222,4.222,0,0,0-1.511-1.293A4.629,4.629,0,0,0,315.2-13.2a4.335,4.335,0,0,0-2.133.493,4.22,4.22,0,0,0-1.454,1.317,5.918,5.918,0,0,0-.84,1.891A8.774,8.774,0,0,0,310.5-7.306Zm26.613-8.968a8.3,8.3,0,0,1,3.708.784,7.68,7.68,0,0,1,2.658,2.125,9.189,9.189,0,0,1,1.6,3.127,13.117,13.117,0,0,1,.533,3.773v.727H332.231A7.632,7.632,0,0,0,332.6-3.5a5.251,5.251,0,0,0,.953,1.737,4.269,4.269,0,0,0,1.487,1.131,4.679,4.679,0,0,0,1.987.4,5.248,5.248,0,0,0,2.69-.63,4.676,4.676,0,0,0,1.689-1.664h3.765a8.453,8.453,0,0,1-1.244,2.238,7.815,7.815,0,0,1-1.826,1.7,8.309,8.309,0,0,1-2.343,1.075,10.08,10.08,0,0,1-2.8.372,9.036,9.036,0,0,1-3.66-.711A7.785,7.785,0,0,1,330.558.167a8.766,8.766,0,0,1-1.721-3.022,11.875,11.875,0,0,1-.6-3.854,11.166,11.166,0,0,1,.6-3.66,9.093,9.093,0,0,1,1.737-3.046,8.367,8.367,0,0,1,2.787-2.084A8.7,8.7,0,0,1,337.11-16.274Zm4.508,7.853a7.639,7.639,0,0,0-.452-1.947,4.759,4.759,0,0,0-.913-1.511,3.939,3.939,0,0,0-1.39-.978,4.771,4.771,0,0,0-1.882-.347,4.793,4.793,0,0,0-1.9.355,4.159,4.159,0,0,0-1.422.986,4.948,4.948,0,0,0-.953,1.511,7,7,0,0,0-.477,1.931ZM367.666-4.4a6.52,6.52,0,0,1-.8,3.321,6.642,6.642,0,0,1-2.149,2.262A9.662,9.662,0,0,1,361.6,2.478a16.23,16.23,0,0,1-3.692.412,14.244,14.244,0,0,1-3.765-.477A9.293,9.293,0,0,1,351.1,1a6.855,6.855,0,0,1-2.036-2.311,6.55,6.55,0,0,1-.743-3.167v-.275h4.056v.145a3.682,3.682,0,0,0,.452,1.858,3.872,3.872,0,0,0,1.244,1.317,5.812,5.812,0,0,0,1.85.784,9.474,9.474,0,0,0,2.254.259A9.448,9.448,0,0,0,360.3-.616a5.664,5.664,0,0,0,1.729-.687A3.6,3.6,0,0,0,363.2-2.442a2.934,2.934,0,0,0,.428-1.6A2.556,2.556,0,0,0,362.6-6.134a8.965,8.965,0,0,0-3.207-1.4l-5.074-1.341a7.8,7.8,0,0,1-3.959-2.141,5.543,5.543,0,0,1-1.293-3.838,6.184,6.184,0,0,1,.711-3.014,6.516,6.516,0,0,1,1.931-2.181,8.884,8.884,0,0,1,2.844-1.333,12.739,12.739,0,0,1,3.434-.452,12.879,12.879,0,0,1,3.272.412,8.912,8.912,0,0,1,2.8,1.252,6.39,6.39,0,0,1,1.963,2.125,6.2,6.2,0,0,1,.768,3.014H362.77a3.438,3.438,0,0,0-.436-1.43,3.493,3.493,0,0,0-1.01-1.115,4.974,4.974,0,0,0-1.511-.719,6.874,6.874,0,0,0-1.955-.259,8.042,8.042,0,0,0-1.834.2,4.815,4.815,0,0,0-1.519.622,3.181,3.181,0,0,0-1.034,1.058,2.9,2.9,0,0,0-.38,1.511,2.739,2.739,0,0,0,.194,1.083,2.213,2.213,0,0,0,.549.776,2.962,2.962,0,0,0,.856.533,8.446,8.446,0,0,0,1.115.372l5.575,1.47a10.163,10.163,0,0,1,4.694,2.391A5.579,5.579,0,0,1,367.666-4.4Zm5.655-11.392,4.767,13.913h.065l4.524-13.913h4.1l-7.74,20.731a8.159,8.159,0,0,1-.808,1.64,4.941,4.941,0,0,1-1.115,1.22,4.716,4.716,0,0,1-1.5.768,6.7,6.7,0,0,1-1.988.267q-.873,0-1.5-.048t-1.277-.129v-3.3q.727.113,1.236.145t.978.032a2.785,2.785,0,0,0,1.1-.194,2.082,2.082,0,0,0,.784-.59,3.836,3.836,0,0,0,.582-1q.25-.606.509-1.43l-6.98-18.114ZM404.653-3.137a5.519,5.519,0,0,1-.622,2.7,5.4,5.4,0,0,1-1.689,1.866A7.445,7.445,0,0,1,399.83,2.51a13.219,13.219,0,0,1-3.094.347,12.576,12.576,0,0,1-2.989-.339,7.567,7.567,0,0,1-2.448-1.05,5.9,5.9,0,0,1-1.737-1.8,6.071,6.071,0,0,1-.84-2.593h3.83a3.229,3.229,0,0,0,.477,1.285,3.22,3.22,0,0,0,.921.929,4.166,4.166,0,0,0,1.268.557,6.055,6.055,0,0,0,1.535.186,6.615,6.615,0,0,0,1.47-.162,4.013,4.013,0,0,0,1.252-.5,2.8,2.8,0,0,0,.873-.848,2.158,2.158,0,0,0,.331-1.2,1.693,1.693,0,0,0-.275-.961,2.477,2.477,0,0,0-.743-.711,4.99,4.99,0,0,0-1.091-.509q-.622-.21-1.3-.372L394.7-5.852a16.607,16.607,0,0,1-2.5-.776,6.538,6.538,0,0,1-1.745-1.018,3.676,3.676,0,0,1-1.018-1.341,4.329,4.329,0,0,1-.331-1.745,4.888,4.888,0,0,1,.59-2.448,5.085,5.085,0,0,1,1.608-1.729,7.418,7.418,0,0,1,2.391-1.026,12.3,12.3,0,0,1,2.957-.339,10.7,10.7,0,0,1,2.925.372,7.2,7.2,0,0,1,2.254,1.05,5.246,5.246,0,0,1,1.5,1.64,5.367,5.367,0,0,1,.687,2.125h-3.83a2.819,2.819,0,0,0-1.228-1.786,4.549,4.549,0,0,0-2.521-.622,6.345,6.345,0,0,0-1.309.129,3.514,3.514,0,0,0-1.066.4,2.124,2.124,0,0,0-.719.679,1.79,1.79,0,0,0-.267.994,1.645,1.645,0,0,0,.275.961,2.521,2.521,0,0,0,.711.679,4.043,4.043,0,0,0,.961.452q.525.17,1.01.283l3.813.9a12.051,12.051,0,0,1,1.882.606,5.4,5.4,0,0,1,1.5.929,4.058,4.058,0,0,1,1.01,1.39A5.085,5.085,0,0,1,404.653-3.137Zm8.58-18.146V2.341H409.1V-21.283Zm22.363,0v3.49h-7.514V2.341h-4.12V-17.793h-7.5v-3.49Z" transform="translate(2111.56 -353.484)" fill="rgba(38,38,38,0.72)"/>
      </g>
    </g>
  </g>
</svg>
